<svg width="100" height="100" viewBox="0 0 100 100" fill="none" xmlns="http://www.w3.org/2000/svg">
<path fill-rule="evenodd" clip-rule="evenodd" d="M45.0625 5C48.0625 1.84375 50 0 50 0C50.6813 2.26875 51.4625 4.425 52.3188 6.4875C57.3938 18.65 65.275 27.425 72.3 35.2375C80.4875 44.35 87.5 52.1562 87.5 62.5C87.5 72.4456 83.5491 81.9839 76.5165 89.0165C69.4839 96.0491 59.9456 100 50 100C40.0544 100 30.5161 96.0491 23.4835 89.0165C16.4509 81.9839 12.5 72.4456 12.5 62.5C12.5 41.675 34.875 15.7312 45.0625 5ZM47.6437 11.3812C43.6301 15.7246 39.8157 20.248 36.2125 24.9375C31.675 30.875 27.2375 37.4875 23.9625 44.125C20.65 50.8312 18.75 57.1125 18.75 62.5C18.75 62.5 34.375 71.875 50 65.625C65.625 59.375 81.25 62.5 81.25 62.5C81.25 54.9938 76.275 49.0187 67.6188 39.375L67.4312 39.175C60.9375 31.9375 53.125 23.2563 47.6437 11.3812Z" fill="black"/>
<path fill-rule="evenodd" clip-rule="evenodd" d="M28.4562 48.6C33.5812 38.3437 39.1875 31.3937 41.5375 29.0375L45.9625 33.4625C44.15 35.275 38.9125 41.6562 34.0437 51.4L28.4562 48.6Z" fill="black"/>
</svg>
