<svg width="100" height="100" viewBox="0 0 100 100" fill="none" xmlns="http://www.w3.org/2000/svg">
<path d="M72.1 87.5625C77.0407 82.6355 80.9591 76.7806 83.6298 70.3343C86.3006 63.8881 87.671 56.9776 87.6625 50C87.671 43.0224 86.3006 36.1119 83.6298 29.6657C80.9591 23.2194 77.0407 17.3646 72.1 12.4375L67.675 16.8563C72.0345 21.2037 75.4918 26.3698 77.8483 32.0578C80.2048 37.7457 81.4139 43.8433 81.4062 50C81.4062 62.9438 76.1562 74.6625 67.675 83.1438L72.1 87.5625Z" fill="black"/>
<path d="M63.2562 78.725C67.0342 74.957 70.0304 70.4796 72.0726 65.55C74.1148 60.6204 75.1627 55.3359 75.1562 50C75.1627 44.6642 74.1148 39.3796 72.0726 34.4501C70.0304 29.5205 67.0342 25.0431 63.2562 21.275L58.8375 25.6938C62.0343 28.8822 64.5694 32.6709 66.2974 36.8421C68.0253 41.0134 68.9119 45.485 68.9062 50C68.9135 54.5156 68.0283 58.9882 66.3014 63.1605C64.5746 67.3329 62.0401 71.1229 58.8437 74.3125L63.2562 78.725Z" fill="black"/>
<path d="M54.4187 69.8875C57.0343 67.2787 59.1085 64.1788 60.5221 60.7658C61.9358 57.3529 62.6611 53.6942 62.6562 50C62.6611 46.3059 61.9358 42.6472 60.5221 39.2342C59.1085 35.8213 57.0343 32.7213 54.4187 30.1125L50 34.5313C52.0343 36.5605 53.6475 38.9717 54.7469 41.6263C55.8463 44.281 56.4102 47.1267 56.4062 50C56.4099 52.8733 55.8458 55.7189 54.7464 58.3735C53.647 61.0281 52.034 63.4394 50 65.4688L54.4187 69.8875ZM41.9813 22.1875C42.5107 22.4426 42.9575 22.8418 43.2704 23.3392C43.5832 23.8367 43.7495 24.4123 43.75 25V75C43.7492 75.5881 43.5824 76.1639 43.269 76.6614C42.9555 77.1589 42.508 77.5579 41.978 77.8125C41.4479 78.0671 40.8568 78.167 40.2725 78.1006C39.6882 78.0343 39.1345 77.8045 38.675 77.4375L23.9062 65.625H9.375C8.5462 65.625 7.75134 65.2958 7.16529 64.7097C6.57924 64.1237 6.25 63.3288 6.25 62.5V37.5C6.25 36.6712 6.57924 35.8764 7.16529 35.2903C7.75134 34.7043 8.5462 34.375 9.375 34.375H23.9062L38.675 22.5625C39.1348 22.195 39.6891 21.9647 40.2741 21.8984C40.859 21.832 41.4508 21.9323 41.9813 22.1875Z" fill="black"/>
</svg>
