<svg width="100" height="100" viewBox="0 0 100 100" fill="none" xmlns="http://www.w3.org/2000/svg">
<g clip-path="url(#clip0_21_21)">
<path d="M44.175 4.54376C45.6937 -1.51874 54.3 -1.51874 55.825 4.54376L56.2687 6.33126C56.5284 7.37006 57.0613 8.32045 57.8121 9.08381C58.563 9.84717 59.5044 10.3957 60.5388 10.6725C61.5732 10.9492 62.6628 10.9442 63.6945 10.6578C64.7262 10.3714 65.6625 9.81409 66.4062 9.04376L67.6875 7.72501C72.0312 3.23126 79.4875 7.53751 77.7687 13.5438L77.2687 15.3188C76.9744 16.3478 76.9607 17.4369 77.229 18.473C77.4973 19.5092 78.0379 20.4547 78.7947 21.2115C79.5516 21.9684 80.4971 22.509 81.5332 22.7773C82.5694 23.0456 83.6584 23.0319 84.6875 22.7375L86.4562 22.2313C92.4562 20.5125 96.7687 27.9688 92.275 32.3125L90.9562 33.5938C90.1859 34.3375 89.6286 35.2738 89.3422 36.3055C89.0559 37.3373 89.0508 38.4268 89.3275 39.4612C89.6043 40.4956 90.1528 41.437 90.9162 42.1879C91.6796 42.9387 92.63 43.4716 93.6687 43.7313L95.4562 44.175C101.519 45.6938 101.519 54.3 95.4562 55.825L93.6687 56.2688C92.63 56.5284 91.6796 57.0613 90.9162 57.8122C90.1528 58.563 89.6043 59.5045 89.3275 60.5388C89.0508 61.5732 89.0559 62.6628 89.3422 63.6945C89.6286 64.7262 90.1859 65.6626 90.9562 66.4063L92.275 67.6875C96.7687 72.0313 92.4625 79.4875 86.4562 77.7688L84.6812 77.2688C83.6522 76.9744 82.5631 76.9607 81.527 77.229C80.4908 77.4973 79.5453 78.0379 78.7885 78.7948C78.0316 79.5516 77.491 80.4971 77.2227 81.5332C76.9544 82.5694 76.9681 83.6585 77.2625 84.6875L77.7687 86.4563C79.4875 92.4563 72.0312 96.7688 67.6875 92.275L66.4062 90.9563C65.6625 90.1859 64.7262 89.6287 63.6945 89.3423C62.6628 89.0559 61.5732 89.0508 60.5388 89.3276C59.5044 89.6043 58.563 90.1529 57.8121 90.9162C57.0613 91.6796 56.5284 92.63 56.2687 93.6688L55.825 95.4563C54.3062 101.519 45.7 101.519 44.175 95.4563L43.7313 93.6688C43.4716 92.63 42.9387 91.6796 42.1879 90.9162C41.437 90.1529 40.4955 89.6043 39.4612 89.3276C38.4268 89.0508 37.3372 89.0559 36.3055 89.3423C35.2738 89.6287 34.3375 90.1859 33.5938 90.9563L32.3125 92.275C27.9687 96.7688 20.5125 92.4625 22.2312 86.4563L22.7312 84.6813C23.025 83.6528 23.0386 82.5646 22.7705 81.5292C22.5024 80.4938 21.9625 79.5488 21.2065 78.7922C20.4505 78.0356 19.506 77.4948 18.4709 77.2259C17.4357 76.9569 16.3474 76.9696 15.3187 77.2625L13.5437 77.7688C7.54375 79.4875 3.23125 72.0313 7.725 67.6875L9.04375 66.4063C9.81407 65.6626 10.3713 64.7262 10.6577 63.6945C10.9441 62.6628 10.9492 61.5732 10.6724 60.5388C10.3957 59.5045 9.84716 58.563 9.08379 57.8122C8.32043 57.0613 7.37004 56.5284 6.33125 56.2688L4.54375 55.825C-1.51875 54.3063 -1.51875 45.7 4.54375 44.175L6.33125 43.7313C7.37004 43.4716 8.32043 42.9387 9.08379 42.1879C9.84716 41.437 10.3957 40.4956 10.6724 39.4612C10.9492 38.4268 10.9441 37.3373 10.6577 36.3055C10.3713 35.2738 9.81407 34.3375 9.04375 33.5938L7.725 32.3125C3.23125 27.9688 7.5375 20.5125 13.5437 22.2313L15.3187 22.7313C16.3472 23.0251 17.4354 23.0386 18.4708 22.7705C19.5062 22.5025 20.4512 21.9625 21.2078 21.2065C21.9644 20.4505 22.5052 19.5061 22.7741 18.4709C23.0431 17.4357 23.0304 16.3474 22.7375 15.3188L22.2312 13.5438C20.5125 7.54376 27.9687 3.23126 32.3125 7.72501L33.5938 9.04376C34.3375 9.81409 35.2738 10.3714 36.3055 10.6578C37.3372 10.9442 38.4268 10.9492 39.4612 10.6725C40.4955 10.3957 41.437 9.84717 42.1879 9.08381C42.9387 8.32045 43.4716 7.37006 43.7313 6.33126L44.175 4.54376ZM81.0812 53.125H51.5625L33.85 76.7438C38.3617 79.4688 43.4896 81.0079 48.7563 81.2177C54.0229 81.4276 59.257 80.3014 63.9713 77.9439C68.6855 75.5865 72.7266 72.0745 75.7182 67.735C78.7099 63.3955 80.5548 58.3695 81.0812 53.125ZM81.0812 46.875C80.5548 41.6306 78.7099 36.6046 75.7182 32.265C72.7266 27.9255 68.6855 24.4135 63.9713 22.0561C59.257 19.6986 54.0229 18.5724 48.7563 18.7823C43.4896 18.9921 38.3617 20.5312 33.85 23.2563L51.5625 46.8813L81.0812 46.875ZM31.55 24.7938C31.3625 24.925 31.1875 25.0625 31.0062 25.2L31.55 24.7938ZM28.8562 27.0125C25.671 29.9342 23.1287 33.4868 21.3909 37.4443C19.6532 41.4019 18.7581 45.6778 18.7625 50C18.7625 59.0938 22.65 67.2813 28.8562 72.9875L46.0938 50L28.8562 27.0125Z" fill="black"/>
</g>
<defs>
<clipPath id="clip0_21_21">
<rect width="100" height="100" fill="white"/>
</clipPath>
</defs>
</svg>
